<svg width="32" height="32" viewBox="0 0 32 32" fill="none" xmlns="http://www.w3.org/2000/svg">
<path d="M5 16H27M5 21H27M5 26H27M7.5 6H24.5C25.163 6 25.7989 6.26339 26.2678 6.73223C26.7366 7.20107 27 7.83696 27 8.5C27 9.16304 26.7366 9.79893 26.2678 10.2678C25.7989 10.7366 25.163 11 24.5 11H7.5C6.83696 11 6.20107 10.7366 5.73223 10.2678C5.26339 9.79893 5 9.16304 5 8.5C5 7.83696 5.26339 7.20107 5.73223 6.73223C6.20107 6.26339 6.83696 6 7.5 6V6Z" stroke="white" stroke-width="1.5" stroke-linecap="round" stroke-linejoin="round"/>
</svg>
