<svg width="32" height="32" viewBox="0 0 32 32" fill="none" xmlns="http://www.w3.org/2000/svg">
<path d="M20.4827 6.952C22.7825 7.97969 24.66 9.76542 25.8017 12.0109C26.9433 14.2563 27.2798 16.8255 26.7551 19.2892C26.2304 21.7529 24.8762 23.962 22.9187 25.5474C20.9612 27.1329 18.519 27.9986 16 28C13.8454 27.9999 11.7382 27.367 9.94005 26.1799C8.14191 24.9928 6.732 23.3038 5.88533 21.3224C5.03866 19.3411 4.79252 17.1547 5.17747 15.0348C5.56242 12.9148 6.56149 10.9545 8.05069 9.39733C9.0769 10.8303 10.431 11.997 12 12.8C12.0275 11.0382 12.4434 9.3041 13.218 7.72145C13.9926 6.1388 15.1069 4.74656 16.4814 3.644C17.5304 5.05092 18.9022 6.18501 20.4814 6.95066L20.4827 6.952Z" stroke="white" stroke-width="1.5" stroke-linecap="round" stroke-linejoin="round"/>
<path d="M16 24C17.2685 23.9995 18.4894 23.5169 19.4154 22.65C20.3414 21.783 20.9033 20.5965 20.9872 19.3307C21.0711 18.065 20.6708 16.8147 19.8673 15.8331C19.0639 14.8515 17.9174 14.2119 16.66 14.044C15.2834 15.2758 14.3764 16.9466 14.0934 18.772C13.0663 18.5207 12.0995 18.0675 11.2494 17.4387C11.0025 18.1897 10.9372 18.9885 11.0589 19.7697C11.1806 20.5508 11.4858 21.292 11.9494 21.9323C12.4131 22.5726 13.0219 23.0939 13.726 23.4533C14.4302 23.8128 15.2095 24.0001 16 24V24Z" stroke="white" stroke-width="1.5" stroke-linecap="round" stroke-linejoin="round"/>
</svg>
