<svg width="32" height="32" viewBox="0 0 32 32" fill="none" xmlns="http://www.w3.org/2000/svg">
<path d="M21 8C21 9.32608 20.4732 10.5979 19.5355 11.5355C18.5979 12.4732 17.3261 13 16 13C14.6739 13 13.4022 12.4732 12.4645 11.5355C11.5268 10.5979 11 9.32608 11 8C11 6.67392 11.5268 5.40215 12.4645 4.46447C13.4022 3.52678 14.6739 3 16 3C17.3261 3 18.5979 3.52678 19.5355 4.46447C20.4732 5.40215 21 6.67392 21 8V8ZM6.00134 26.824C6.04419 24.2005 7.11646 21.6989 8.98691 19.8587C10.8574 18.0186 13.3761 16.9873 16 16.9873C18.6239 16.9873 21.1427 18.0186 23.0131 19.8587C24.8836 21.6989 25.9558 24.2005 25.9987 26.824C22.8619 28.2624 19.4509 29.0047 16 29C12.432 29 9.04534 28.2213 6.00134 26.824Z" stroke="white" stroke-width="1.5" stroke-linecap="round" stroke-linejoin="round"/>
</svg>
