<svg width="16" height="16" viewBox="0 0 16 16" fill="none" xmlns="http://www.w3.org/2000/svg">
<path d="M10.3867 8.00001C10.3867 9.32001 9.32001 10.3867 8.00001 10.3867C6.68001 10.3867 5.61334 9.32001 5.61334 8.00001C5.61334 6.68001 6.68001 5.61334 8.00001 5.61334C9.32001 5.61334 10.3867 6.68001 10.3867 8.00001Z" stroke="#909090" stroke-linecap="round" stroke-linejoin="round"/>
<path d="M8 13.5133C10.3533 13.5133 12.5467 12.1267 14.0733 9.72668C14.6733 8.78668 14.6733 7.20668 14.0733 6.26668C12.5467 3.86668 10.3533 2.48001 8 2.48001C5.64667 2.48001 3.45334 3.86668 1.92667 6.26668C1.32667 7.20668 1.32667 8.78668 1.92667 9.72668C3.45334 12.1267 5.64667 13.5133 8 13.5133Z" stroke="#909090" stroke-linecap="round" stroke-linejoin="round"/>
</svg>
